{
  "accessors": [
    {
      "bufferView": 2,
      "componentType": 5126,
      "count": 1346,
      "max": [
        2.9300997257232666,
        2.968235969543457,
        11.213273048400879
      ],
      "min": [
        -2.8757545948028564,
        -2.837618350982666,
        0.4200322926044464
      ],
      "type": "VEC3"
    },
    {
      "bufferView": 2,
      "byteOffset": 16152,
      "componentType": 5126,
      "count": 1346,
      "max": [
        0.9999978542327881,
        0.9999422430992126,
        1.0
      ],
      "min": [
        -0.9999979138374329,
        -0.999991774559021,
        -1.0
      ],
      "type": "VEC3"
    },
    {
      "bufferView": 3,
      "componentType": 5126,
      "count": 1346,
      "max": [
        0.9999225735664368,
        0.9999226331710815,
        1.0,
        1.0
      ],
      "min": [
        -0.9999225735664368,
        -0.9999226927757263,
        -1.0,
        1.0
      ],
      "type": "VEC4"
    },
    {
      "bufferView": 1,
      "componentType": 5126,
      "count": 1346,
      "max": [
        1.8393523693084717,
        1.92954683303833
      ],
      "min": [
        0.003566265106201172,
        0.005017518997192383
      ],
      "type": "VEC2"
    },
    {
      "bufferView": 0,
      "componentType": 5125,
      "count": 2481,
      "type": "SCALAR"
    },
    {
      "bufferView": 2,
      "byteOffset": 32304,
      "componentType": 5126,
      "count": 1144,
      "max": [
        2.2338907718658447,
        2.2501301765441895,
        9.229500770568848
      ],
      "min": [
        -2.210569381713867,
        -2.1943256855010986,
        6.336851119995117
      ],
      "type": "VEC3"
    },
    {
      "bufferView": 2,
      "byteOffset": 46032,
      "componentType": 5126,
      "count": 1144,
      "max": [
        1.0,
        1.0,
        1.0
      ],
      "min": [
        -1.0,
        -1.0,
        -1.0
      ],
      "type": "VEC3"
    },
    {
      "bufferView": 3,
      "byteOffset": 21536,
      "componentType": 5126,
      "count": 1144,
      "max": [
        1.0,
        1.0,
        0.9998466968536377,
        1.0
      ],
      "min": [
        -1.0,
        -1.0,
        -0.05204051733016968,
        1.0
      ],
      "type": "VEC4"
    },
    {
      "bufferView": 1,
      "byteOffset": 10768,
      "componentType": 5126,
      "count": 1144,
      "max": [
        0.9999454021453857,
        1.9926724433898926
      ],
      "min": [
        -2.6464462280273438e-05,
        0.008330106735229492
      ],
      "type": "VEC2"
    },
    {
      "bufferView": 0,
      "byteOffset": 9924,
      "componentType": 5125,
      "count": 2130,
      "type": "SCALAR"
    },
    {
      "bufferView": 2,
      "byteOffset": 59760,
      "componentType": 5126,
      "count": 96,
      "max": [
        4.399581432342529,
        4.45932674407959,
        9.654821395874023
      ],
      "min": [
        -4.314443588256836,
        -4.254698753356934,
        -0.09955459833145142
      ],
      "type": "VEC3"
    },
    {
      "bufferView": 2,
      "byteOffset": 60912,
      "componentType": 5126,
      "count": 96,
      "max": [
        0.9238891005516052,
        0.9238905906677246,
        1.0
      ],
      "min": [
        -0.9238895773887634,
        -0.9238899350166321,
        -0.9339269995689392
      ],
      "type": "VEC3"
    },
    {
      "bufferView": 3,
      "byteOffset": 39840,
      "componentType": 5126,
      "count": 96,
      "max": [
        0.7918592691421509,
        0.923922598361969,
        0.9860852956771851,
        1.0
      ],
      "min": [
        -0.3246399760246277,
        -0.9545649290084839,
        -0.9879932403564453,
        1.0
      ],
      "type": "VEC4"
    },
    {
      "bufferView": 1,
      "byteOffset": 19920,
      "componentType": 5126,
      "count": 96,
      "max": [
        0.9936559200286865,
        1.6578569412231445
      ],
      "min": [
        0.006242275238037109,
        0.006242930889129639
      ],
      "type": "VEC2"
    },
    {
      "bufferView": 0,
      "byteOffset": 18444,
      "componentType": 5125,
      "count": 264,
      "type": "SCALAR"
    }
  ],
  "asset": {
    "extras": {
      "author": "Ahmad Azizi (https://sketchfab.com/azizi16)",
      "license": "CC-BY-4.0 (http://creativecommons.org/licenses/by/4.0/)",
      "source": "https://sketchfab.com/3d-models/lighthouse-01-f62ff1dd93fe4044a4213670367a160f",
      "title": "Lighthouse 01"
    },
    "generator": "Sketchfab-12.68.0",
    "version": "2.0"
  },
  "bufferViews": [
    {
      "buffer": 0,
      "byteLength": 19500,
      "name": "floatBufferViews",
      "target": 34963
    },
    {
      "buffer": 0,
      "byteLength": 20688,
      "byteOffset": 19500,
      "byteStride": 8,
      "name": "floatBufferViews",
      "target": 34962
    },
    {
      "buffer": 0,
      "byteLength": 62064,
      "byteOffset": 40188,
      "byteStride": 12,
      "name": "floatBufferViews",
      "target": 34962
    },
    {
      "buffer": 0,
      "byteLength": 41376,
      "byteOffset": 102252,
      "byteStride": 16,
      "name": "floatBufferViews",
      "target": 34962
    }
  ],
  "buffers": [
    {
      "byteLength": 143628,
      "uri": "scene.bin"
    }
  ],
  "images": [
    {
      "uri": "textures/id_01_baseColor.png"
    },
    {
      "uri": "textures/id_01_metallicRoughness.png"
    },
    {
      "uri": "textures/id_01_normal.png"
    },
    {
      "uri": "textures/id_02_baseColor.png"
    },
    {
      "uri": "textures/id_02_metallicRoughness.png"
    },
    {
      "uri": "textures/id_02_normal.png"
    },
    {
      "uri": "textures/id_03_baseColor.png"
    },
    {
      "uri": "textures/id_03_metallicRoughness.png"
    },
    {
      "uri": "textures/id_03_normal.png"
    }
  ],
  "materials": [
    {
      "alphaCutoff": 0.1,
      "alphaMode": "MASK",
      "doubleSided": true,
      "name": "id_01",
      "normalTexture": {
        "index": 2
      },
      "occlusionTexture": {
        "index": 1
      },
      "pbrMetallicRoughness": {
        "baseColorTexture": {
          "index": 0
        },
        "metallicRoughnessTexture": {
          "index": 1
        }
      }
    },
    {
      "alphaMode": "BLEND",
      "doubleSided": true,
      "name": "id_02",
      "normalTexture": {
        "index": 5
      },
      "occlusionTexture": {
        "index": 4
      },
      "pbrMetallicRoughness": {
        "baseColorTexture": {
          "index": 3
        },
        "metallicRoughnessTexture": {
          "index": 4
        }
      }
    },
    {
      "doubleSided": true,
      "name": "id_03",
      "normalTexture": {
        "index": 8
      },
      "occlusionTexture": {
        "index": 7
      },
      "pbrMetallicRoughness": {
        "baseColorTexture": {
          "index": 6
        },
        "metallicRoughnessTexture": {
          "index": 7
        }
      }
    }
  ],
  "meshes": [
    {
      "name": "lighthouse_v1_low_id_01_0",
      "primitives": [
        {
          "attributes": {
            "NORMAL": 1,
            "POSITION": 0,
            "TANGENT": 2,
            "TEXCOORD_0": 3
          },
          "indices": 4,
          "material": 0,
          "mode": 4
        }
      ]
    },
    {
      "name": "lighthouse_v1_low_id_02_0",
      "primitives": [
        {
          "attributes": {
            "NORMAL": 6,
            "POSITION": 5,
            "TANGENT": 7,
            "TEXCOORD_0": 8
          },
          "indices": 9,
          "material": 1,
          "mode": 4
        }
      ]
    },
    {
      "name": "lighthouse_v1_low_id_03_0",
      "primitives": [
        {
          "attributes": {
            "NORMAL": 11,
            "POSITION": 10,
            "TANGENT": 12,
            "TEXCOORD_0": 13
          },
          "indices": 14,
          "material": 2,
          "mode": 4
        }
      ]
    }
  ],
  "nodes": [
    {
      "children": [
        1
      ],
      "matrix": [
        1.0,
        0.0,
        0.0,
        0.0,
        0.0,
        2.220446049250313e-16,
        -1.0,
        0.0,
        0.0,
        1.0,
        2.220446049250313e-16,
        0.0,
        -8.127823093673214e-06,
        -6.202119948284238e-06,
        1.3827397197019307e-05,
        1.0
      ],
      "name": "Sketchfab_model"
    },
    {
      "children": [
        2
      ],
      "matrix": [
        1.0,
        0.0,
        0.0,
        0.0,
        0.0,
        0.0,
        1.0,
        0.0,
        0.0,
        -1.0,
        0.0,
        0.0,
        0.0,
        0.0,
        0.0,
        1.0
      ],
      "name": "e3a8ee44df8946589cbeb28685aca9f2.fbx"
    },
    {
      "children": [
        3
      ],
      "name": "RootNode"
    },
    {
      "children": [
        4,
        5,
        6
      ],
      "matrix": [
        92.77907434164449,
        -2.7755575615628914e-15,
        37.31009735055116,
        0.0,
        37.31009735055113,
        -4.371139006309477e-06,
        -92.7790743416444,
        0.0,
        1.630876214631094e-06,
        99.99999999999991,
        -4.055502311750558e-06,
        0.0,
        -163.0238494873047,
        342.07867431640625,
        515.061279296875,
        1.0
      ],
      "name": "lighthouse_v1_low"
    },
    {
      "mesh": 0,
      "name": "lighthouse_v1_low_id_01_0"
    },
    {
      "mesh": 1,
      "name": "lighthouse_v1_low_id_02_0"
    },
    {
      "mesh": 2,
      "name": "lighthouse_v1_low_id_03_0"
    }
  ],
  "samplers": [
    {
      "magFilter": 9729,
      "minFilter": 9987,
      "wrapS": 10497,
      "wrapT": 10497
    }
  ],
  "scene": 0,
  "scenes": [
    {
      "name": "Sketchfab_Scene",
      "nodes": [
        0
      ]
    }
  ],
  "textures": [
    {
      "sampler": 0,
      "source": 0
    },
    {
      "sampler": 0,
      "source": 1
    },
    {
      "sampler": 0,
      "source": 2
    },
    {
      "sampler": 0,
      "source": 3
    },
    {
      "sampler": 0,
      "source": 4
    },
    {
      "sampler": 0,
      "source": 5
    },
    {
      "sampler": 0,
      "source": 6
    },
    {
      "sampler": 0,
      "source": 7
    },
    {
      "sampler": 0,
      "source": 8
    }
  ]
}
